<svg width="400" height="400" viewBox="0 0 400 400" fill="none" xmlns="http://www.w3.org/2000/svg">
<g clip-path="url(#clip0_1_2)">
<rect width="400" height="400" fill="black"/>
<path d="M63.2227 56.3906H89.8535L124.375 159.067L158.798 56.3906H185.429L135.126 200H113.525L63.2227 56.3906ZM47.8359 56.3906H74.96L79.9902 162.815V200H47.8359V56.3906ZM173.691 56.3906H200.914V200H168.661V162.815L173.691 56.3906Z" fill="white"/>
<path d="M254.457 221.344H286.098C285.577 231.109 282.908 239.736 278.09 247.223C273.337 254.645 266.729 260.471 258.266 264.703C249.802 268.87 239.743 270.953 228.09 270.953C218.78 270.953 210.447 269.358 203.09 266.168C195.733 262.978 189.483 258.421 184.34 252.496C179.262 246.506 175.355 239.312 172.621 230.914C169.952 222.45 168.617 212.913 168.617 202.301V193.609C168.617 182.997 170.017 173.46 172.816 164.996C175.616 156.533 179.62 149.306 184.828 143.316C190.036 137.327 196.286 132.737 203.578 129.547C210.87 126.357 219.008 124.762 227.992 124.762C240.102 124.762 250.323 126.943 258.656 131.305C266.99 135.667 273.435 141.656 277.992 149.273C282.615 156.891 285.382 165.582 286.293 175.348H254.555C254.294 169.814 253.253 165.159 251.43 161.383C249.607 157.542 246.807 154.645 243.031 152.691C239.255 150.738 234.242 149.762 227.992 149.762C223.435 149.762 219.431 150.608 215.98 152.301C212.595 153.993 209.763 156.63 207.484 160.211C205.271 163.792 203.611 168.349 202.504 173.883C201.397 179.352 200.844 185.862 200.844 193.414V202.301C200.844 209.788 201.332 216.266 202.309 221.734C203.285 227.203 204.848 231.728 206.996 235.309C209.21 238.889 212.042 241.559 215.492 243.316C218.943 245.074 223.142 245.953 228.09 245.953C233.754 245.953 238.474 245.074 242.25 243.316C246.026 241.493 248.923 238.759 250.941 235.113C252.96 231.467 254.132 226.878 254.457 221.344Z" fill="white"/>
<path d="M61.68 340.2V311H65.28V315.2H66L65.28 316.04C65.28 314.36 65.8267 313.04 66.92 312.08C68.04 311.093 69.5067 310.6 71.32 310.6C73.5333 310.6 75.2933 311.333 76.6 312.8C77.9333 314.24 78.6 316.227 78.6 318.76V325.2C78.6 326.88 78.2933 328.333 77.68 329.56C77.0933 330.787 76.2533 331.733 75.16 332.4C74.0933 333.067 72.8133 333.4 71.32 333.4C69.5333 333.4 68.08 332.907 66.96 331.92C65.84 330.933 65.28 329.613 65.28 327.96L66 328.8H65.2L65.28 333.8V340.2H61.68ZM70.12 330.28C71.64 330.28 72.8267 329.827 73.68 328.92C74.56 328.013 75 326.707 75 325V319C75 317.293 74.56 315.987 73.68 315.08C72.8267 314.173 71.64 313.72 70.12 313.72C68.6533 313.72 67.48 314.187 66.6 315.12C65.72 316.053 65.28 317.347 65.28 319V325C65.28 326.653 65.72 327.947 66.6 328.88C67.48 329.813 68.6533 330.28 70.12 330.28ZM92.4244 333V311H95.9444V315.2H96.7844L95.6244 317.8C95.6244 315.427 96.131 313.64 97.1444 312.44C98.1844 311.213 99.7177 310.6 101.744 310.6C104.064 310.6 105.904 311.333 107.264 312.8C108.651 314.24 109.344 316.2 109.344 318.68V320H105.744V319C105.744 317.267 105.318 315.947 104.464 315.04C103.638 314.107 102.451 313.64 100.904 313.64C99.3844 313.64 98.1844 314.107 97.3044 315.04C96.451 315.973 96.0244 317.293 96.0244 319V333H92.4244ZM129.969 333.32C128.209 333.32 126.689 332.987 125.409 332.32C124.129 331.653 123.129 330.693 122.409 329.44C121.715 328.16 121.369 326.653 121.369 324.92V319.08C121.369 317.32 121.715 315.813 122.409 314.56C123.129 313.307 124.129 312.347 125.409 311.68C126.689 311.013 128.209 310.68 129.969 310.68C131.729 310.68 133.249 311.013 134.529 311.68C135.809 312.347 136.795 313.307 137.489 314.56C138.209 315.813 138.569 317.307 138.569 319.04V324.92C138.569 326.653 138.209 328.16 137.489 329.44C136.795 330.693 135.809 331.653 134.529 332.32C133.249 332.987 131.729 333.32 129.969 333.32ZM129.969 330.12C131.542 330.12 132.769 329.68 133.649 328.8C134.529 327.92 134.969 326.627 134.969 324.92V319.08C134.969 317.373 134.529 316.08 133.649 315.2C132.769 314.32 131.542 313.88 129.969 313.88C128.422 313.88 127.195 314.32 126.289 315.2C125.409 316.08 124.969 317.373 124.969 319.08V324.92C124.969 326.627 125.409 327.92 126.289 328.8C127.195 329.68 128.422 330.12 129.969 330.12ZM158.673 333.4C156.486 333.4 154.713 332.667 153.353 331.2C152.02 329.733 151.353 327.747 151.353 325.24V318.8C151.353 316.267 152.02 314.267 153.353 312.8C154.686 311.333 156.46 310.6 158.673 310.6C160.486 310.6 161.94 311.093 163.033 312.08C164.126 313.067 164.673 314.387 164.673 316.04L163.953 315.2H164.753L164.673 310.2V303.8H168.273V333H164.673V328.8H163.953L164.673 327.96C164.673 329.64 164.126 330.973 163.033 331.96C161.94 332.92 160.486 333.4 158.673 333.4ZM159.873 330.28C161.366 330.28 162.54 329.813 163.393 328.88C164.246 327.947 164.673 326.653 164.673 325V319C164.673 317.347 164.246 316.053 163.393 315.12C162.54 314.187 161.366 313.72 159.873 313.72C158.353 313.72 157.153 314.173 156.273 315.08C155.393 315.987 154.953 317.293 154.953 319V325C154.953 326.707 155.393 328.013 156.273 328.92C157.153 329.827 158.353 330.28 159.873 330.28ZM189.898 333.4C187.364 333.4 185.338 332.653 183.817 331.16C182.298 329.64 181.538 327.587 181.538 325V311H185.138V325C185.138 326.653 185.564 327.947 186.418 328.88C187.271 329.787 188.431 330.24 189.898 330.24C191.391 330.24 192.564 329.787 193.418 328.88C194.298 327.947 194.738 326.653 194.738 325V311H198.338V325C198.338 327.587 197.564 329.64 196.018 331.16C194.471 332.653 192.431 333.4 189.898 333.4ZM220.082 333.4C218.322 333.4 216.775 333.067 215.442 332.4C214.135 331.733 213.122 330.773 212.402 329.52C211.682 328.24 211.322 326.733 211.322 325V319C211.322 317.24 211.682 315.733 212.402 314.48C213.122 313.227 214.135 312.267 215.442 311.6C216.775 310.933 218.322 310.6 220.082 310.6C222.615 310.6 224.655 311.28 226.202 312.64C227.749 314 228.562 315.853 228.642 318.2H225.042C224.962 316.787 224.482 315.707 223.602 314.96C222.749 314.187 221.575 313.8 220.082 313.8C218.509 313.8 217.255 314.253 216.322 315.16C215.389 316.04 214.922 317.307 214.922 318.96V325C214.922 326.653 215.389 327.933 216.322 328.84C217.255 329.747 218.509 330.2 220.082 330.2C221.575 330.2 222.749 329.813 223.602 329.04C224.482 328.267 224.962 327.187 225.042 325.8H228.642C228.562 328.147 227.749 330 226.202 331.36C224.655 332.72 222.615 333.4 220.082 333.4ZM252.306 333C250.413 333 248.933 332.493 247.866 331.48C246.826 330.467 246.306 329.04 246.306 327.2V314.28H240.106V311H246.306V304.8H249.906V311H258.706V314.28H249.906V327.2C249.906 328.88 250.706 329.72 252.306 329.72H258.306V333H252.306ZM271.291 333V329.72H279.091V314.28H272.291V311H282.691V329.72H290.091V333H271.291ZM280.491 307.04C279.611 307.04 278.917 306.813 278.411 306.36C277.904 305.907 277.651 305.293 277.651 304.52C277.651 303.72 277.904 303.093 278.411 302.64C278.917 302.16 279.611 301.92 280.491 301.92C281.371 301.92 282.064 302.16 282.571 302.64C283.077 303.093 283.331 303.72 283.331 304.52C283.331 305.293 283.077 305.907 282.571 306.36C282.064 306.813 281.371 307.04 280.491 307.04ZM309.875 333.32C308.115 333.32 306.595 332.987 305.315 332.32C304.035 331.653 303.035 330.693 302.315 329.44C301.622 328.16 301.275 326.653 301.275 324.92V319.08C301.275 317.32 301.622 315.813 302.315 314.56C303.035 313.307 304.035 312.347 305.315 311.68C306.595 311.013 308.115 310.68 309.875 310.68C311.635 310.68 313.155 311.013 314.435 311.68C315.715 312.347 316.702 313.307 317.395 314.56C318.115 315.813 318.475 317.307 318.475 319.04V324.92C318.475 326.653 318.115 328.16 317.395 329.44C316.702 330.693 315.715 331.653 314.435 332.32C313.155 332.987 311.635 333.32 309.875 333.32ZM309.875 330.12C311.448 330.12 312.675 329.68 313.555 328.8C314.435 327.92 314.875 326.627 314.875 324.92V319.08C314.875 317.373 314.435 316.08 313.555 315.2C312.675 314.32 311.448 313.88 309.875 313.88C308.328 313.88 307.102 314.32 306.195 315.2C305.315 316.08 304.875 317.373 304.875 319.08V324.92C304.875 326.627 305.315 327.92 306.195 328.8C307.102 329.68 308.328 330.12 309.875 330.12ZM331.539 333V311H335.139V315.2H335.899L335.139 316.04C335.139 314.307 335.659 312.973 336.699 312.04C337.739 311.08 339.179 310.6 341.019 310.6C343.233 310.6 344.993 311.28 346.299 312.64C347.606 314 348.259 315.853 348.259 318.2V333H344.659V318.6C344.659 317.027 344.233 315.827 343.379 315C342.553 314.147 341.419 313.72 339.979 313.72C338.486 313.72 337.299 314.173 336.419 315.08C335.566 315.987 335.139 317.293 335.139 319V333H331.539Z" fill="white"/>
<path d="M351.652 280.77C351.653 282.957 350.922 284.731 349.456 286.092C347.991 287.427 346.005 288.095 343.498 288.097L337.058 288.103C334.525 288.105 332.524 287.44 331.056 286.108C329.588 284.776 328.853 283.003 328.852 280.79C328.85 278.976 329.342 277.522 330.328 276.428C331.314 275.334 332.633 274.786 334.287 274.785L333.447 275.506L333.446 274.706L328.447 274.79L322.047 274.795L322.043 271.195L351.243 271.171L351.246 274.771L347.047 274.774L347.047 275.494L346.207 274.775C347.887 274.773 349.22 275.319 350.208 276.411C351.169 277.504 351.65 278.957 351.652 280.77ZM348.531 279.573C348.529 278.079 348.062 276.907 347.128 276.054C346.194 275.201 344.9 274.776 343.247 274.777L337.247 274.782C335.593 274.784 334.3 275.212 333.368 276.066C332.435 276.92 331.969 278.094 331.971 279.587C331.972 281.107 332.426 282.307 333.334 283.186C334.241 284.065 335.548 284.504 337.255 284.502L343.255 284.497C344.961 284.496 346.268 284.055 347.174 283.174C348.08 282.293 348.532 281.093 348.531 279.573ZM351.232 258.106L347.952 258.109L347.946 250.309L332.506 250.322L332.511 257.122L329.231 257.125L329.223 246.725L347.943 246.709L347.936 239.309L351.216 239.306L351.232 258.106ZM325.264 248.928C325.265 249.808 325.039 250.502 324.586 251.009C324.133 251.516 323.52 251.77 322.747 251.77C321.947 251.771 321.32 251.518 320.866 251.012C320.386 250.506 320.145 249.813 320.144 248.933C320.144 248.053 320.383 247.359 320.863 246.852C321.316 246.345 321.942 246.091 322.742 246.09C323.515 246.09 324.129 246.343 324.583 246.849C325.036 247.355 325.264 248.048 325.264 248.928ZM358.404 225.076L355.124 225.078L355.118 218.078C355.117 216.958 354.863 216.145 354.356 215.639C353.849 215.106 353.062 214.84 351.996 214.841L349.196 214.843L345.195 214.767L345.196 215.487L344.595 214.807C346.195 214.806 347.463 215.338 348.397 216.404C349.331 217.47 349.799 218.896 349.8 220.683C349.802 222.95 349.071 224.737 347.605 226.045C346.113 227.353 344.113 228.008 341.607 228.01L336.967 228.014C334.46 228.016 332.473 227.364 331.005 226.059C329.537 224.754 328.802 222.968 328.8 220.701C328.799 218.914 329.264 217.487 330.197 216.42C331.129 215.352 332.395 214.818 333.995 214.816L333.396 215.497L333.395 214.817L329.195 214.82L329.192 211.26L351.992 211.241C353.966 211.239 355.526 211.851 356.674 213.077C357.822 214.276 358.396 215.956 358.398 218.116L358.404 225.076ZM346.68 219.606C346.678 218.112 346.211 216.939 345.277 216.087C344.342 215.234 343.049 214.809 341.395 214.81L337.195 214.814C335.542 214.815 334.249 215.243 333.317 216.097C332.384 216.951 331.918 218.125 331.92 219.618C331.921 221.138 332.375 222.324 333.283 223.177C334.19 224.003 335.497 224.415 337.204 224.414L341.404 224.41C343.11 224.409 344.417 223.994 345.323 223.167C346.229 222.313 346.681 221.126 346.68 219.606ZM351.181 198.137L347.901 198.14L347.895 190.34L332.455 190.353L332.46 197.153L329.18 197.156L329.172 186.756L347.892 186.74L347.885 179.34L351.165 179.337L351.181 198.137ZM325.213 188.96C325.214 189.84 324.988 190.533 324.535 191.04C324.082 191.547 323.469 191.801 322.696 191.802C321.896 191.802 321.269 191.55 320.815 191.043C320.335 190.537 320.094 189.844 320.093 188.964C320.093 188.084 320.332 187.39 320.812 186.883C321.265 186.376 321.891 186.122 322.691 186.122C323.464 186.121 324.078 186.374 324.532 186.88C324.985 187.386 325.213 188.08 325.213 188.96ZM351.146 157.153C351.148 159.046 350.643 160.527 349.63 161.594C348.618 162.635 347.192 163.156 345.352 163.158L332.432 163.169L332.437 169.369L329.157 169.372L329.152 163.172L322.952 163.177L322.948 159.577L329.148 159.572L329.141 150.772L332.421 150.769L332.428 159.569L345.348 159.558C347.028 159.557 347.868 158.756 347.866 157.156L347.861 151.156L351.141 151.153L351.146 157.153ZM351.525 131.488C351.527 133.808 350.941 135.636 349.769 136.97C348.57 138.304 346.958 138.972 344.931 138.974C342.878 138.976 341.264 138.31 340.089 136.978C338.915 135.646 338.327 133.846 338.325 131.58L338.319 124.78L336.119 124.781C334.759 124.783 333.719 125.197 333 126.024C332.254 126.825 331.882 127.972 331.883 129.465C331.884 130.772 332.165 131.865 332.726 132.744C333.26 133.624 333.993 134.13 334.927 134.262L334.93 137.862C333.036 137.624 331.529 136.732 330.408 135.186C329.286 133.641 328.725 131.708 328.723 129.388C328.721 126.854 329.372 124.854 330.678 123.386C331.983 121.918 333.756 121.183 335.996 121.182L351.116 121.169L351.119 124.689L346.919 124.692L346.919 125.292L346.319 124.693C347.919 124.691 349.186 125.317 350.12 126.57C351.055 127.795 351.523 129.435 351.525 131.488ZM348.684 130.611C348.682 128.904 348.255 127.504 347.4 126.412C346.546 125.319 345.452 124.774 344.119 124.775L340.999 124.777L341.005 131.497C341.006 132.697 341.34 133.644 342.007 134.336C342.674 135.029 343.581 135.375 344.728 135.374C345.955 135.373 346.928 134.959 347.647 134.132C348.339 133.278 348.685 132.104 348.684 130.611ZM351.095 96.5843C351.096 97.8643 350.844 98.9845 350.338 99.945C349.832 100.905 349.113 101.653 348.18 102.187C347.247 102.721 346.154 102.989 344.9 102.99L325.18 103.006L325.187 110.406L321.907 110.409L321.897 99.4092L344.897 99.3896C345.804 99.3888 346.524 99.1349 347.057 98.6278C347.563 98.1207 347.816 97.4404 347.815 96.5871L347.809 89.5871L351.089 89.5843L351.095 96.5843ZM351.472 69.5996C351.473 71.3329 351.128 72.8532 350.436 74.1605C349.744 75.4411 348.771 76.4419 347.518 77.163C346.239 77.8574 344.759 78.2053 343.079 78.2068L337.079 78.2119C335.373 78.2133 333.892 77.8679 332.638 77.1756C331.384 76.4567 330.41 75.4575 329.716 74.1781C329.021 72.8721 328.673 71.3523 328.672 69.619C328.67 67.8857 329.016 66.3787 329.708 65.0981C330.4 63.7909 331.373 62.79 332.626 62.0956C333.878 61.3746 335.358 61.0133 337.065 61.0119L340.945 61.0086L340.956 74.6886L343.076 74.6868C344.81 74.6853 346.143 74.2442 347.075 73.3634C347.981 72.4826 348.433 71.2289 348.432 69.6022C348.431 68.2155 348.19 67.0957 347.709 66.2428C347.202 65.3899 346.455 64.8705 345.468 64.6847L345.465 61.0847C347.305 61.3232 348.772 62.2286 349.867 63.801C350.935 65.3467 351.47 67.2796 351.472 69.5996ZM338.548 64.5306L337.068 64.5319C335.334 64.5333 334.001 64.9745 333.069 65.8553C332.136 66.7094 331.671 67.9631 331.672 69.6165C331.673 71.2431 332.141 72.4961 333.075 73.3753C334.009 74.2545 335.343 74.6933 337.076 74.6919L338.236 74.6909L338.227 64.2509L338.548 64.5306Z" fill="white"/>
<g filter="url(#filter0_d_1_2)">
<path d="M308.12 62L308.12 292" stroke="#FF0000" stroke-width="4"/>
</g>
<path d="M58 292L310 292" stroke="#FF0000" stroke-width="4"/>
</g>
<defs>
<filter id="filter0_d_1_2" x="302.12" y="62" width="12" height="238" filterUnits="userSpaceOnUse" color-interpolation-filters="sRGB">
<feFlood flood-opacity="0" result="BackgroundImageFix"/>
<feColorMatrix in="SourceAlpha" type="matrix" values="0 0 0 0 0 0 0 0 0 0 0 0 0 0 0 0 0 0 127 0" result="hardAlpha"/>
<feOffset dy="4"/>
<feGaussianBlur stdDeviation="2"/>
<feComposite in2="hardAlpha" operator="out"/>
<feColorMatrix type="matrix" values="0 0 0 0 0 0 0 0 0 0 0 0 0 0 0 0 0 0 0.25 0"/>
<feBlend mode="normal" in2="BackgroundImageFix" result="effect1_dropShadow_1_2"/>
<feBlend mode="normal" in="SourceGraphic" in2="effect1_dropShadow_1_2" result="shape"/>
</filter>
<clipPath id="clip0_1_2">
<rect width="400" height="400" fill="white"/>
</clipPath>
</defs>
</svg>
